<?xml version="1.0" encoding="utf-8"?>
<!-- Generator: Adobe Illustrator 16.0.0, SVG Export Plug-In . SVG Version: 6.00 Build 0)  -->
<!DOCTYPE svg PUBLIC "-//W3C//DTD SVG 1.1//EN" "http://www.w3.org/Graphics/SVG/1.1/DTD/svg11.dtd">
<svg version="1.1" id="Layer_1" xmlns="http://www.w3.org/2000/svg" xmlns:xlink="http://www.w3.org/1999/xlink" x="0px" y="0px"
	 width="10px" height="18px" viewBox="0 0 10 18" enable-background="new 0 0 10 18" xml:space="preserve">
<g>
	<g>
		<g>
			<path fill="#CCCCCC" d="M0.727,7.167h8.56c0.079,0,0.152-0.045,0.189-0.115C9.492,7.021,9.5,6.985,9.5,6.951
				c0-0.042-0.013-0.085-0.038-0.122l-4.28-6.236C5.143,0.535,5.076,0.5,5.006,0.5S4.87,0.535,4.83,0.593L0.55,6.829
				C0.505,6.896,0.5,6.981,0.537,7.052S0.646,7.167,0.727,7.167z M9.273,10.833h-8.56c-0.079,0-0.152,0.045-0.189,0.115
				c-0.017,0.031-0.024,0.065-0.024,0.1c0,0.043,0.013,0.086,0.038,0.123l4.279,6.236c0.04,0.058,0.105,0.093,0.177,0.093
				c0.07,0,0.136-0.035,0.176-0.093l4.28-6.236c0.045-0.066,0.05-0.152,0.013-0.223S9.354,10.833,9.273,10.833z"/>
		</g>
	</g>
</g>
</svg>
