<?xml version="1.0" encoding="utf-8"?>
<!-- Generator: Adobe Illustrator 16.0.0, SVG Export Plug-In . SVG Version: 6.00 Build 0)  -->
<!DOCTYPE svg PUBLIC "-//W3C//DTD SVG 1.1//EN" "http://www.w3.org/Graphics/SVG/1.1/DTD/svg11.dtd">
<svg version="1.1" id="Layer_1" xmlns="http://www.w3.org/2000/svg" xmlns:xlink="http://www.w3.org/1999/xlink" x="0px" y="0px"
	 width="17px" height="17px" viewBox="0 0 17 17" enable-background="new 0 0 17 17" xml:space="preserve">
<g>
	<g>
		<path fill="#999999" d="M5.909,8.965H4.612c-0.204,0-0.371,0.162-0.371,0.362v1.267c0,0.201,0.167,0.363,0.371,0.363h1.297
			c0.205,0,0.371-0.162,0.371-0.363V9.327C6.28,9.127,6.114,8.965,5.909,8.965z M9.148,8.965H7.852
			c-0.205,0-0.371,0.162-0.371,0.362v1.267c0,0.201,0.166,0.363,0.371,0.363h1.297c0.204,0,0.371-0.162,0.371-0.363V9.327
			C9.52,9.127,9.353,8.965,9.148,8.965z M12.387,8.965h-1.296c-0.205,0-0.371,0.162-0.371,0.362v1.267
			c0,0.201,0.166,0.363,0.371,0.363h1.296c0.205,0,0.371-0.162,0.371-0.363V9.327C12.758,9.127,12.592,8.965,12.387,8.965z
			 M5.909,12.132H4.612c-0.204,0-0.371,0.162-0.371,0.362v1.268c0,0.2,0.167,0.363,0.371,0.363h1.297
			c0.205,0,0.371-0.163,0.371-0.363v-1.268C6.28,12.294,6.114,12.132,5.909,12.132z M9.148,12.132H7.852
			c-0.205,0-0.371,0.162-0.371,0.362v1.268c0,0.2,0.166,0.363,0.371,0.363h1.297c0.204,0,0.371-0.163,0.371-0.363v-1.268
			C9.52,12.294,9.353,12.132,9.148,12.132z M12.388,12.132h-1.297c-0.205,0-0.371,0.162-0.371,0.362v1.268
			c0,0.2,0.166,0.363,0.371,0.363h1.297c0.204,0,0.37-0.163,0.37-0.363v-1.268C12.758,12.294,12.592,12.132,12.388,12.132z
			 M15.076,2.281v1.936c0,0.875-0.727,1.58-1.621,1.58h-1.021c-0.895,0-1.63-0.705-1.63-1.58V2.274H6.196v1.942
			c0,0.875-0.735,1.58-1.63,1.58H3.544c-0.895,0-1.62-0.705-1.62-1.58V2.281C1.143,2.305,0.5,2.937,0.5,3.715v11.342
			c0,0.793,0.656,1.443,1.467,1.443h13.066c0.809,0,1.467-0.652,1.467-1.443V3.715C16.5,2.937,15.857,2.305,15.076,2.281z
			 M14.601,14.352c0,0.342-0.283,0.619-0.634,0.619H3.005c-0.351,0-0.634-0.277-0.634-0.619V8.492c0-0.343,0.283-0.62,0.634-0.62
			h10.962c0.351,0,0.634,0.277,0.634,0.62V14.352z M3.541,4.759h1.011c0.307,0,0.556-0.243,0.556-0.543V1.043
			c0-0.3-0.249-0.543-0.556-0.543H3.541c-0.308,0-0.556,0.243-0.556,0.543v3.173C2.985,4.516,3.233,4.759,3.541,4.759z M12.42,4.759
			h1.012c0.307,0,0.555-0.243,0.555-0.543V1.043c0-0.3-0.248-0.543-0.555-0.543H12.42c-0.307,0-0.556,0.243-0.556,0.543v3.173
			C11.864,4.516,12.113,4.759,12.42,4.759z"/>
	</g>
</g>
</svg>
