<?xml version="1.0" encoding="utf-8"?>
<!-- Generator: Adobe Illustrator 16.0.0, SVG Export Plug-In . SVG Version: 6.00 Build 0)  -->
<!DOCTYPE svg PUBLIC "-//W3C//DTD SVG 1.1//EN" "http://www.w3.org/Graphics/SVG/1.1/DTD/svg11.dtd">
<svg version="1.1" id="Layer_1" xmlns="http://www.w3.org/2000/svg" xmlns:xlink="http://www.w3.org/1999/xlink" x="0px" y="0px"
	 width="28px" height="28px" viewBox="0 0 28 28" enable-background="new 0 0 28 28" xml:space="preserve">
<g>
	<rect x="3.125" y="2.658" opacity="0.3" fill="#63A2D8" enable-background="new    " width="22.128" height="22.408"/>
	<path fill="#2368A2" d="M24.498,0.5H3.502C1.848,0.5,0.5,1.848,0.5,3.502v20.996c0,1.652,1.348,3.002,3.002,3.002h20.996
		c1.652,0,3.002-1.35,3.002-3.002V3.502C27.5,1.848,26.15,0.5,24.498,0.5z M24.498,24.498H3.502V3.502h20.996V24.498z M6.5,10.998
		h3.002v10.498H6.5V10.998z M12.499,6.5h3.002v14.997h-3.002V6.5z M18.503,15.501h2.993v5.995h-2.993V15.501z"/>
</g>
</svg>
