<?xml version="1.0" encoding="utf-8"?>
<!-- Generator: Adobe Illustrator 16.0.0, SVG Export Plug-In . SVG Version: 6.00 Build 0)  -->
<!DOCTYPE svg PUBLIC "-//W3C//DTD SVG 1.1//EN" "http://www.w3.org/Graphics/SVG/1.1/DTD/svg11.dtd">
<svg version="1.1" id="Layer_1" xmlns="http://www.w3.org/2000/svg" xmlns:xlink="http://www.w3.org/1999/xlink" x="0px" y="0px"
	 width="17px" height="22px" viewBox="0 0 17 22" enable-background="new 0 0 17 22" xml:space="preserve">
<g>
	<g>
		<path fill="#C0C0C0" d="M8.502,0.523c-4.419,0.004-8,3.558-8.002,7.941c0,4.265,7.38,12.53,7.693,12.877
			c0.151,0.168,0.412,0.182,0.581,0.031c0.012-0.01,0.022-0.021,0.032-0.031C9.12,20.99,16.5,12.729,16.5,8.464
			C16.498,4.083,12.92,0.53,8.502,0.523z M8.502,20.446C7.094,18.813,1.323,11.953,1.323,8.46c0-3.933,3.214-7.121,7.179-7.121
			s7.179,3.188,7.179,7.121C15.681,11.953,9.91,18.82,8.502,20.446z M8.646,4.506c-2.396,0.002-4.335,1.93-4.333,4.306
			c0.003,2.375,1.946,4.3,4.341,4.298c2.394-0.002,4.333-1.928,4.333-4.302C12.982,6.432,11.041,4.508,8.646,4.506z M8.646,12.297
			c-1.94,0-3.514-1.561-3.514-3.485s1.573-3.484,3.514-3.484c1.939,0,3.513,1.56,3.513,3.484
			C12.157,10.735,10.585,12.295,8.646,12.297z"/>
	</g>
</g>
</svg>
