<?xml version="1.0" encoding="utf-8"?>
<!-- Generator: Adobe Illustrator 16.0.0, SVG Export Plug-In . SVG Version: 6.00 Build 0)  -->
<!DOCTYPE svg PUBLIC "-//W3C//DTD SVG 1.1//EN" "http://www.w3.org/Graphics/SVG/1.1/DTD/svg11.dtd">
<svg version="1.1" id="Layer_1" xmlns="http://www.w3.org/2000/svg" xmlns:xlink="http://www.w3.org/1999/xlink" x="0px" y="0px"
	 width="28px" height="28px" viewBox="0 0 28 28" enable-background="new 0 0 28 28" xml:space="preserve">
<g>
	<g>
		<path fill="#999999" d="M7.25,26.536h13.5V18.18H7.25V26.536z M8.938,19.85h10.125v1.672H8.938V19.85z M8.938,23.192h10.125v1.672
			H8.938V23.192z M20.75,1.464H7.25v8.357h13.5V1.464z M24.125,6.479h-1.688v5.014H5.563V6.479H3.875
			C2.188,6.479,0.5,8.15,0.5,9.821v8.358c0,1.67,1.688,3.342,3.375,3.342h1.688v-5.015h16.875v5.015h1.688
			c1.688,0,3.375-1.672,3.375-3.342V9.821C27.5,8.15,25.813,6.479,24.125,6.479z"/>
	</g>
</g>
</svg>
