<?xml version="1.0" encoding="utf-8"?>
<!-- Generator: Adobe Illustrator 16.0.0, SVG Export Plug-In . SVG Version: 6.00 Build 0)  -->
<!DOCTYPE svg PUBLIC "-//W3C//DTD SVG 1.1//EN" "http://www.w3.org/Graphics/SVG/1.1/DTD/svg11.dtd">
<svg version="1.1" id="Layer_1" xmlns="http://www.w3.org/2000/svg" xmlns:xlink="http://www.w3.org/1999/xlink" x="0px" y="0px"
	 width="28px" height="28px" viewBox="0 0 28 28" enable-background="new 0 0 28 28" xml:space="preserve">
<g>
	<g>
		<path fill="#999999" d="M26.563,18.253c-0.291-0.28-0.646-0.419-1.063-0.419h-7.25l-2.125,2.036
			c-0.604,0.559-1.313,0.839-2.125,0.839s-1.521-0.279-2.125-0.839l-2.109-2.036H2.5c-0.417,0-0.771,0.14-1.063,0.419
			S1,18.871,1,19.271v4.791c0,0.399,0.146,0.738,0.438,1.019C1.729,25.36,2.083,25.5,2.5,25.5h23c0.417,0,0.771-0.14,1.063-0.419
			C26.854,24.801,27,24.462,27,24.063v-4.791C27,18.871,26.854,18.532,26.563,18.253z M20.703,23.299
			c-0.198,0.189-0.433,0.285-0.703,0.285s-0.505-0.096-0.703-0.285S19,22.885,19,22.625s0.099-0.484,0.297-0.674
			s0.433-0.284,0.703-0.284s0.505,0.095,0.703,0.284S21,22.365,21,22.625S20.901,23.109,20.703,23.299z M24.703,23.299
			c-0.198,0.189-0.433,0.285-0.703,0.285s-0.505-0.096-0.703-0.285C23.1,23.109,23,22.885,23,22.625s0.1-0.484,0.297-0.674
			c0.198-0.189,0.433-0.284,0.703-0.284s0.505,0.095,0.703,0.284S25,22.365,25,22.625S24.901,23.109,24.703,23.299z M13.297,18.508
			c0.188,0.189,0.422,0.283,0.703,0.283s0.516-0.094,0.703-0.283l7-6.709c0.323-0.289,0.396-0.639,0.219-1.048
			c-0.177-0.39-0.484-0.584-0.922-0.584h-4V3.458c0-0.26-0.1-0.484-0.297-0.674C16.505,2.595,16.271,2.5,16,2.5h-4
			c-0.271,0-0.505,0.095-0.703,0.285C11.099,2.974,11,3.199,11,3.458v6.708H7c-0.438,0-0.745,0.194-0.922,0.584
			c-0.177,0.409-0.104,0.759,0.219,1.048L13.297,18.508z"/>
	</g>
</g>
</svg>
