<?xml version="1.0" encoding="utf-8"?>
<!-- Generator: Adobe Illustrator 16.0.0, SVG Export Plug-In . SVG Version: 6.00 Build 0)  -->
<!DOCTYPE svg PUBLIC "-//W3C//DTD SVG 1.1//EN" "http://www.w3.org/Graphics/SVG/1.1/DTD/svg11.dtd">
<svg version="1.1" id="Layer_1" xmlns="http://www.w3.org/2000/svg" xmlns:xlink="http://www.w3.org/1999/xlink" x="0px" y="0px"
	 width="18px" height="18px" viewBox="0 0 18 18" enable-background="new 0 0 18 18" xml:space="preserve">
<path fill="#999999" d="M17.258,16.263l-4.07-4.07c1.009-1.23,1.617-2.805,1.617-4.522c0-3.938-3.196-7.135-7.135-7.135
	c-3.942,0-7.135,3.196-7.135,7.135s3.192,7.135,7.135,7.135c1.718,0,3.288-0.604,4.519-1.614l4.07,4.067
	c0.276,0.276,0.723,0.276,0.999,0C17.534,16.985,17.534,16.536,17.258,16.263z M7.67,13.384c-3.154,0-5.718-2.563-5.718-5.714
	c0-3.151,2.563-5.719,5.718-5.719c3.15,0,5.718,2.567,5.718,5.719C13.388,10.82,10.82,13.384,7.67,13.384z"/>
</svg>
