<?xml version="1.0" encoding="utf-8"?>
<!-- Generator: Adobe Illustrator 16.0.0, SVG Export Plug-In . SVG Version: 6.00 Build 0)  -->
<!DOCTYPE svg PUBLIC "-//W3C//DTD SVG 1.1//EN" "http://www.w3.org/Graphics/SVG/1.1/DTD/svg11.dtd">
<svg version="1.1" id="Layer_1" xmlns="http://www.w3.org/2000/svg" xmlns:xlink="http://www.w3.org/1999/xlink" x="0px" y="0px"
	 width="28px" height="28px" viewBox="-2 -2 28 28" enable-background="new -2 -2 28 28" xml:space="preserve">
<g>
	<g>
		<path opacity="0.3" fill="#63A2D8" enable-background="new    " d="M9.299,9.299h5.398v5.398H9.299V9.299z M9.299,17.401h5.398
			v5.401H9.299V17.401z M1.201,1.201h5.398v5.398H1.201V1.201z M1.201,9.299h5.398v5.398H1.201V9.299z M1.201,17.401h5.398v5.401
			H1.201V17.401z M17.401,1.201h5.401v5.398h-5.401V1.201z M17.401,9.299h5.401v5.398h-5.401V9.299z M17.401,17.401h5.401v5.401
			h-5.401V17.401z M9.299,1.201h5.398v5.398H9.299V1.201z"/>
		<path fill="#2368A2" d="M22.803-1.5H1.201C-0.286-1.5-1.5-0.286-1.5,1.201v21.602c0,1.482,1.214,2.697,2.701,2.697h21.602
			c1.482,0,2.697-1.215,2.697-2.697V1.201C25.5-0.286,24.285-1.5,22.803-1.5z M6.599,22.803H1.201v-5.401h5.398V22.803z
			 M6.599,14.697H1.201V9.299h5.398V14.697z M6.599,6.599H1.201V1.201h5.398V6.599z M14.697,22.803H9.299v-5.401h5.398V22.803z
			 M14.697,14.697H9.299V9.299h5.398V14.697z M14.697,6.599H9.299V1.201h5.398V6.599z M22.803,22.803h-5.401v-5.401h5.401V22.803z
			 M22.803,14.697h-5.401V9.299h5.401V14.697z M22.803,6.599h-5.401V1.201h5.401V6.599z"/>
	</g>
</g>
</svg>
